# AST/ASF file generated using VICON BodyLanguage
# -----------------------------------------------
:version 1.10
:name VICON
:units
  mass 1.0
  length 0.45
  angle deg
:documentation
   .ast/.asf automatically generated from VICON data using
   VICON BodyBuilder and BodyLanguage model FoxedUp or BRILLIANT.MOD
:root
   order TX TY TZ RX RY RZ
   axis XYZ
   position 0 0 0  
   orientation 0 -0 0 
:bonedata
  begin
     id 1 
     name lhipjoint
     direction 0.515797 -0.759363 0.396637 
     length 2.47888 
     axis 0 -0 0  XYZ
  end
  begin
     id 2 
     name lfemur
     direction 0.34202 -0.939693 0  
     length 6.81885  
     axis 0 -0 20  XYZ
    dof rx ry rz
    limits (-160.0 20.0)
           (-70.0 70.0)
           (-60.0 70.0)
  end
  begin
     id 3 
     name ltibia
     direction 0.342037 -0.939687 0   
     length 7.89258   
     axis 0 -0 20   XYZ
    dof rx
    limits (-10.0 170.0)
  end
  begin
     id 4 
     name lfoot
     direction 0.173497 -0.476678 0.861787   
     length 2.51543   
     axis -90 -1.13533e-015 20   XYZ
    dof rx rz
    limits (-45.0 90.0)
           (-70.0 20.0)
  end
  begin
     id 5 
     name ltoes
     direction 1.53564e-011 -4.21897e-011 1   
     length 1.21388   
     axis -90 -1.13533e-015 20   XYZ
    dof rx
    limits (-90.0 20.0)
  end
  begin
     id 6 
     name rhipjoint
     direction -0.489454 -0.772941 0.403729   
     length 2.43534  
     axis 0 -0 0  XYZ 
  end
  begin
     id 7 
     name rfemur
     direction -0.34202 -0.939693 0   
     length 7.10357   
     axis 0 -0 -20   XYZ
    dof rx ry rz
    limits (-160.0 20.0)
           (-70.0 70.0)
           (-70.0 60.0)
  end
  begin
     id 8 
     name rtibia
     direction -0.34202 -0.939693 0   
     length 9.16127   
     axis 0 -0 -20   XYZ
    dof rx
    limits (-10.0 170.0)
 end
 begin
     id 9 
     name rfoot
     direction -0.270974 -0.748671 0.605033   
     length 1.74894  
     axis -90 1.13533e-015 -20   XYZ
    dof rx rz
    limits (-45.0 90.0)
           (-20.0 70.0)
  end
  begin
     id 10 
     name rtoes
     direction -1.53557e-011 -4.21759e-011 1   
     length 0.787585   
     axis -90 1.13533e-015 -20   XYZ
    dof rx
    limits (-90.0 20.0)
  end
  begin
     id 11 
     name lowerback
     direction -0.0140249 0.999561 0.0260968   
     length 2.16963   
     axis 0 -0 0   XYZ
    dof rx ry rz
    limits (-20.0 45.0)
           (-30.0 30.0)
           (-30.0 30.0)
  end
  begin
     id 12 
     name upperback
     direction 0.00860018 0.999959 -0.002711   
     length 2.1726   
     axis 0 -0 0   XYZ
    dof rx ry rz
    limits (-20.0 45.0)
           (-30.0 30.0)
           (-30.0 30.0)
  end
  begin
     id 13 
     name thorax
     direction 0.015211 0.999782 -0.0143191   
     length 2.17061   
     axis 0 -0 0   XYZ
    dof rx ry rz
    limits (-20.0 45.0)
           (-30.0 30.0)
           (-30.0 30.0)
  end
  begin
     id 14 
     name lowerneck
     direction -0.0140143 0.999447 0.030145   
     length 2.26749   
     axis 0 -0 0   XYZ
    dof rx ry rz
    limits (-20.0 45.0)
           (-30.0 30.0)
           (-30.0 30.0)
  end
  begin
     id 15 
     name upperneck
     direction 0.118062 0.961438 -0.248392   
     length 2.22728   
     axis 0 -0 0   XYZ
    dof rx ry rz
    limits (-20.0 45.0)
           (-30.0 30.0)
           (-30.0 30.0)
  end
  begin
     id 16
     name head
     direction 0.0431885 0.9954 -0.085514  
     length 2.28786  
     axis 0 -0 0   XYZ
    dof rx ry rz
    limits (-20.0 45.0)
           (-30.0 30.0)
           (-30.0 30.0)
  end
  begin
     id 17 
     name lclavicle
     direction 0.912126 0.409548 0.0172323  
     length 4.31571  
     axis 0 -0 0   XYZ
    dof ry rz
    limits (-20.0 10.0)
           (0.0 20.0)
  end
  begin
     id 18 
     name lhumerus
     direction 1 -4.48977e-011 1.93091e-027   
     length 5.13658   
     axis 180 -30 -90   XYZ
    dof rx ry rz
    limits (-60.0 90.0)
           (-90.0 90.0)
           (-90.0 90.0)
  end
  begin
     id 19
     name lradius
     direction 1 -4.48916e-011 6.84018e-027   
     length 3.22473   
     axis 180 -30 -90   XYZ
    dof rx
    limits (-10.0 170.0)
  end
  begin
     id 20
     name lwrist
     direction 1 -4.48987e-011 7.01981e-027   
     length 1.61236   
     axis -4.37994e-015 90 90   XYZ
    dof ry
    limits (-180.0 0.0)
 end
  begin
     id 21 
     name lhand
     direction 1 -4.49037e-011 1.40335e-026   
     length 0.936406   
     axis -8.96029e-015 90 90   XYZ
    dof rx rz
    limits (-90.0 90.0)
           (-45.0 45.0)
  end
  begin
     id 22 
     name lfingers
     direction 1 -4.48886e-011 2.8104e-026   
     length 0.754955   
     axis -1.79203e-014 90 90   XYZ
    dof rx
    limits (0.0 90.0)
  end
  begin
     id 23
     name lthumb
     direction 0.707107 -6.34937e-011 0.707107   
     length 1.08397   
     axis -90 45 -4.48555e-014   XYZ
    dof rx rz
    limits (-45.0 45.0)
           (-45.0 45.0)
  end
  begin
     id 24 
     name rclavicle
     direction -0.947962 0.317997 0.0156638   
     length 4.86918  
     axis 0 -0 0   XYZ 
    dof ry rz
    limits (-10.0 20.0)
           (-20.0 0.0)
  end
  begin
     id 25 
     name rhumerus
     direction -1 -4.48951e-011 2.80534e-018  
     length 5.60911   
     axis 180 30 90   XYZ
    dof rx ry rz
    limits (-90.0 60.0)
           (-90.0 90.0)
           (-90.0 90.0)
  end
  begin
     id 26 
     name rradius
     direction -1 -4.4898e-011 2.11315e-027   
     length 3.38704   
     axis 180 30 90   XYZ
    dof rx
    limits (-10.0 170.0)
  end
  begin
     id 27 
     name rwrist
     direction -1 -4.48933e-011 7.02314e-027   
     length 1.69352   
     axis -4.37994e-015 -90 -90   XYZ
    dof ry
    limits (-180.0 0.0)
  end
  begin
     id 28
     name rhand
     direction -1 -4.48937e-011 1.40458e-026   
     length 0.755878   
     axis -8.96029e-015 -90 -90   XYZ
    dof rx rz
    limits (-90.0 90.0)
           (-45.0 45.0)
  end
  begin
     id 29
     name rfingers
     direction -1 -4.4901e-011 2.80737e-026   
     length 0.609409   
     axis -1.79203e-014 -90 -90   XYZ
    dof rx
    limits (0.0 90.0)
  end
  begin
     id 30
     name rthumb
     direction -0.707107 -6.34968e-011 0.707107   
     length 0.874992   
     axis -90 -45 4.48555e-014   XYZ
    dof rx rz
    limits (-45.0 45.0)
           (-45.0 45.0)
  end
:hierarchy
  begin
    root lhipjoint rhipjoint lowerback
    lhipjoint lfemur
    lfemur ltibia
    ltibia lfoot
    lfoot ltoes
    rhipjoint rfemur
    rfemur rtibia
    rtibia rfoot
    rfoot rtoes
    lowerback upperback
    upperback thorax
    thorax lowerneck lclavicle rclavicle
    lowerneck upperneck
    upperneck head
    lclavicle lhumerus
    lhumerus lradius
    lradius lwrist
    lwrist lhand lthumb
    lhand lfingers
    rclavicle rhumerus
    rhumerus rradius
    rradius rwrist
    rwrist rhand rthumb
    rhand rfingers
  end

#!OML:ASF C:\ViconDB\ViconDB\414\Spring2016\041811\Spring2016.ASF
:FULLY-SPECIFIED
:DEGREES
31
root 11.2846 17.7223 18.1544 1.93275 -84.1815 -1.48985
lowerback 2.33409 -1.7285 -2.39139
upperback 0.769504 -2.36224 0.234505
thorax -0.412187 -1.18554 1.63967
lowerneck 1.55654 -11.5687 -27.5157
upperneck 18.9041 -20.5474 22.7018
head 11.2384 -10.7029 10.3657
rclavicle 3.16999e-014 1.88845e-015
rhumerus 0.690998 -27.7376 1.41157
rradius 66.744
rwrist 13.747
rhand -57.7253 -26.7351
rfingers 7.12502
rthumb -29.9838 -54.3253
lclavicle 3.16999e-014 1.88845e-015
lhumerus -5.68332 11.3546 0.0387
lradius 44.8928
lwrist 6.16016
lhand -45.163 35.7577
lfingers 7.12502
lthumb -17.9405 64.9503
rfemur 163.812 40.0496 -175.972
rtibia 35.7621
rfoot -20.2865 -50.2382
rtoes -20.9132
lfemur -12.9814 -4.54371 -6.69281
ltibia 39.3559
lfoot -28.7631 -0.261057
ltoes -15.1254
32
root 11.293 17.715 18.1332 2.30081 -83.8543 -1.9284
lowerback 2.68549 -1.81614 -2.22705
upperback 0.823365 -2.48459 0.192352
thorax -0.556911 -1.24566 1.51923
lowerneck 1.16212 -11.6476 -27.5774
upperneck 18.7455 -20.4937 22.7272
head 11.2532 -10.6409 10.3611
rclavicle 4.30493e-015 -7.95139e-016
rhumerus 0.295143 -27.7777 1.61634
rradius 67.3976
rwrist 14.0871
rhand -58.1392 -27.3744
rfingers 7.12502
rthumb -30.3786 -54.8924
lclavicle 4.30493e-015 -7.95139e-016
lhumerus -5.58975 11.2147 0.129484
lradius 44.627
lwrist 5.84686
lhand -45.4554 36.5302
lfingers 7.12502
lthumb -18.2218 65.6967
rfemur 163.619 40.6982 -175.883
rtibia 35.904
rfoot -21.1183 -50.2189
rtoes -21.4738
lfemur -13.4614 -3.56763 -6.33456
ltibia 39.7657
lfoot -28.289 -1.77187
ltoes -14.4603
33
root 11.3002 17.7168 18.1147 2.73226 -83.4829 -2.42319
lowerback 3.01052 -1.90684 -2.12778
upperback 0.828862 -2.61092 0.189185
thorax -0.732313 -1.30698 1.47648
lowerneck 1.05285 -11.659 -27.6982
upperneck 18.4522 -20.4046 22.8127
head 11.1663 -10.5842 10.4122
rclavicle 3.04389e-016 4.77083e-015
rhumerus -0.037812 -27.7442 1.83813
rradius 67.9352
rwrist 14.4497
rhand -58.4246 -27.6753
rfingers 7.12502
rthumb -30.6508 -55.1427
lclavicle 3.04389e-016 4.77083e-015
lhumerus -5.39852 11.1036 0.32295
lradius 44.2656
lwrist 5.48025
lhand -45.5921 37.0883
lfingers 7.12502
lthumb -18.3534 66.2424
rfemur 163.374 39.4882 -175.908
rtibia 36.0106
rfoot -19.4149 -49.8686
rtoes -22.7483
lfemur -13.9367 -2.71811 -6.00338
ltibia 40.158
lfoot -27.7225 -3.33786
ltoes -14.1558
34
root 11.3063 17.7154 18.0994 3.30611 -83.1208 -3.13051
lowerback 3.26689 -1.98966 -2.0467
upperback 0.940384 -2.72467 0.214075
thorax -0.759247 -1.36513 1.46796
lowerneck 0.840755 -11.7009 -27.7785
upperneck 18.1447 -20.3261 22.8947
head 11.0927 -10.5203 10.4449
rclavicle -6.70898e-016 1.59028e-015
rhumerus -0.275217 -27.8781 2.00211
rradius 68.3433
rwrist 14.8118
rhand -58.8458 -27.6104
rfingers 7.12502
rthumb -31.0523 -55.0019
lclavicle -6.70898e-016 1.59028e-015
lhumerus -5.31742 10.6171 0.534994
lradius 44.39
lwrist 6.31814
lhand -46.1227 38.2142
lfingers 7.12502
lthumb -18.8637 67.3195
rfemur 163.039 39.5551 -175.957
rtibia 36.068
rfoot -19.311 -49.7185
rtoes -23.2682
lfemur -14.3417 -1.97109 -5.68068
ltibia 40.5607
lfoot -27.3985 -4.77022
ltoes -13.7082
35
root 11.3022 17.7151 18.0926 4.67813 -82.7764 -4.60426
lowerback 3.38463 -2.08463 -1.77385
upperback 1.03189 -2.84481 0.221764
thorax -0.739398 -1.42658 1.33041
lowerneck 0.616433 -11.7572 -27.7269
upperneck 17.9439 -20.2719 22.8619
head 11.0354 -10.4658 10.4062
rclavicle 6.62077e-014 -2.38542e-015
rhumerus -0.433976 -27.9865 2.02321
rradius 68.6581
rwrist 15.2151
rhand -59.1803 -27.9783
rfingers 7.12502
rthumb -31.3712 -55.3084
lclavicle 6.62077e-014 -2.38542e-015
lhumerus -5.02957 10.8 0.79155
lradius 44.0292
lwrist 6.19409
lhand -46.2907 37.8717
lfingers 7.12502
lthumb -19.0253 66.9612
rfemur 162.756 40.0169 -175.887
rtibia 36.081
rfoot -19.7945 -49.5836
rtoes -23.7388
lfemur -14.721 -1.20695 -5.29236
ltibia 40.9039
lfoot -27.1466 -5.94703
ltoes -13.503
36
root 11.3009 17.719 18.0894 5.11328 -82.5099 -5.09443
lowerback 3.52395 -2.14091 -1.68376
upperback 1.03851 -2.91926 0.248311
thorax -0.810937 -1.46326 1.31587
lowerneck 0.531908 -11.8149 -27.7581
upperneck 17.843 -20.2625 22.7472
head 11.0001 -10.4539 10.3506
rclavicle 3.38679e-014 2.5842e-015
rhumerus -0.521311 -28.1105 2.01744
rradius 68.9183
rwrist 15.6824
rhand -59.2815 -28.1321
rfingers 7.12502
rthumb -31.4676 -55.4434
lclavicle 3.38679e-014 2.5842e-015
lhumerus -4.87781 10.6876 1.03654
lradius 43.7781
lwrist 5.97423
lhand -46.4375 38.0135
lfingers 7.12502
lthumb -19.1665 67.089
rfemur 162.598 40.163 -175.897
rtibia 36.0592
rfoot -19.9408 -49.4399
rtoes -24.3155
lfemur -15.0813 -0.587375 -5.08494
ltibia 41.1609
lfoot -27.011 -6.67426
ltoes -13.9961
37
root 11.2969 17.7152 18.0873 6.71482 -82.2844 -6.86143
lowerback 3.69572 -2.19519 -1.46234
upperback 1.09071 -2.98643 0.303529
thorax -0.859451 -1.4972 1.25767
lowerneck 0.513242 -11.8181 -27.7778
upperneck 17.7141 -20.2154 22.7285
head 10.942 -10.4272 10.347
rclavicle 2.23757e-014 -3.37934e-015
rhumerus -0.527186 -28.2704 1.86223
rradius 69.1533
rwrist 15.8724
rhand -59.3502 -27.5904
rfingers 7.12502
rthumb -31.533 -54.8889
lclavicle 2.23757e-014 -3.37934e-015
lhumerus -4.77326 10.3821 1.23919
lradius 43.7069
lwrist 5.98902
lhand -46.561 39.0558
lfingers 7.12502
lthumb -19.2852 68.1196
rfemur 162.326 39.9413 -175.807
rtibia 36.007
rfoot -19.6004 -49.2673
rtoes -24.726
lfemur -15.244 -0.393181 -4.75151
ltibia 41.2729
lfoot -27.3785 -6.70714
ltoes -14.1392
38
root 11.2932 17.719 18.0913 6.54211 -82.1844 -6.74342
lowerback 3.7595 -2.22045 -1.51736
upperback 1.11224 -3.02344 0.293136
thorax -0.869509 -1.51588 1.28147
lowerneck 0.491584 -11.837 -27.7907
upperneck 17.6555 -20.2188 22.7283
head 10.9277 -10.4254 10.3431
rclavicle 2.67862e-014 2.98177e-015
rhumerus -0.47845 -28.3512 1.64856
rradius 69.3312
rwrist 15.9785
rhand -59.3816 -27.641
rfingers 7.12502
rthumb -31.5629 -54.9336
lclavicle 2.67862e-014 2.98177e-015
lhumerus -4.50036 10.6417 1.57873
lradius 43.2929
lwrist 5.41503
lhand -46.5939 38.6129
lfingers 7.12502
lthumb -19.3168 67.6735
rfemur 162.235 39.7896 -175.907
rtibia 35.9286
rfoot -19.4998 -49.119
rtoes -25.2434
lfemur -15.4039 -0.276532 -4.75291
ltibia 41.2116
lfoot -28.1359 -6.42447
ltoes -13.6636
